<?xml version="1.0" encoding="utf-8"?>
<!-- Generator: Adobe Illustrator 20.0.0, SVG Export Plug-In . SVG Version: 6.00 Build 0)  -->
<svg version="1.1" id="Layer_1" xmlns="http://www.w3.org/2000/svg" xmlns:xlink="http://www.w3.org/1999/xlink" x="0px" y="0px"
	 viewBox="0 0 56.5 49" style="enable-background:new 0 0 56.5 49;" xml:space="preserve">
<style type="text/css">
	.st0{fill:#FFFFFF;}
	.st1{fill:#020203;}
</style>
<line class="st0" x1="41.7" y1="3.9" x2="41.7" y2="16.1"/>
<line class="st0" x1="41.7" y1="3.9" x2="41.7" y2="16.1"/>
<polygon class="st1" points="53.5,8.3 43.5,8.3 43.5,3.9 39.8,3.9 39.8,16.2 43.5,16.2 43.5,12 49.9,12 49.9,39.7 9.4,39.7 9.4,12 
	14.2,12 14.2,8.3 5.8,8.3 5.8,11.5 3.1,11.5 3.1,46 50.4,46 50.4,43.3 53.5,43.3 "/>
<path class="st1" d="M22.7,20.2c0,1.3-0.3,1.9-1.9,1.9h-0.8v3.1h2.7v9.7H26V19.8h-3.4V20.2z"/>
<path class="st1" d="M33.9,31.7c1.4-0.9,2.4-1.7,3.2-2.5c1.6-1.5,2.3-3,2.3-4.7c0-2.9-2.2-5-5.4-5c-3.5,0-5.7,2.1-5.7,5.5v0.2
	l3.5,0.2v-0.2c0-1.1,0.4-2.5,2.1-2.5c1.1,0,1.9,0.7,1.9,1.8c0,1.2-0.6,2.2-2.2,3.4c-2.6,2-4.8,3.6-5.2,3.8v0v3.1h11.2v-3.2H33.9z"/>
<polygon class="st1" points="37.1,8.3 20.5,8.3 20.5,3.9 16.9,3.9 16.9,16.2 20.5,16.2 20.5,12 37.1,12 "/>
</svg>
